<svg width="62" height="62" viewBox="0 0 62 62" fill="none" xmlns="http://www.w3.org/2000/svg">
<path d="M13.8799 15.1158C15.9477 14.8861 18.4243 12.6592 19.7388 11.1803C20.4797 10.3468 22.1592 11.9022 22.5796 12.4527C24.0077 14.3228 23.5708 17.7389 22.8163 19.7912C20.6714 25.6252 16.4163 29.8084 12.637 34.6458C10.4779 37.4095 11.2167 33.1023 11.2167 31.6275" stroke="#E2B714" stroke-width="3" stroke-linecap="round"/>
<path d="M22.9346 13.5179C22.9346 11.3761 27.7033 9.78949 29.5926 9.78949C32.7354 9.78949 33.5873 12.1551 33.5873 15.1158C33.5873 16.9746 30.6562 19.289 29.0599 20.1759C27.1839 21.2181 24.7676 21.3587 22.9346 20.4422" stroke="#E2B714" stroke-width="3" stroke-linecap="round"/>
<path d="M28.7936 26.3012C31.971 26.3012 35.9537 26.9526 38.9137 25.7686" stroke="#E2B714" stroke-width="3" stroke-linecap="round"/>
<path d="M35.7179 23.1054C35.7179 27.1307 32.1806 29.2522 31.9895 32.6928C31.9195 33.952 30.2982 35.8887 33.0547 35.8887C34.8208 35.8887 34.7594 33.6514 35.7179 32.6928" stroke="#E2B714" stroke-width="3" stroke-linecap="round"/>
<path d="M42.6422 27.3664C43.9898 27.3664 44.0283 26.8366 45.187 26.4195C47.2791 25.6664 45.4211 28.1547 45.3054 28.9643C44.9679 31.3267 43.2585 33.7495 43.1749 36.0069C43.0954 38.1538 42.1307 39.7069 41.0443 41.4516C39.696 43.6172 40.4106 45.5824 39.8607 47.8433C39.421 49.6509 37.9183 51.5338 37.8485 53.3472C37.7839 55.026 37.5614 55.3089 36.2506 53.9982" stroke="#E2B714" stroke-width="3" stroke-linecap="round"/>
<path d="M44.7727 28.9643C44.8446 28.3895 47.99 26.277 48.6195 26.3012C50.6547 26.3794 52.2296 29.5653 52.2296 31.3908C52.2296 33.9311 51.1658 35.8886 48.2644 35.8886C46.2633 35.8886 44.3247 37.1232 43.1748 34.8233" stroke="#E2B714" stroke-width="3" stroke-linecap="round"/>
<circle cx="31" cy="31" r="29.5" stroke="#E2B714" stroke-width="3"/>
</svg>
